<?xml version="1.0" standalone="no"?><!DOCTYPE svg PUBLIC "-//W3C//DTD SVG 1.1//EN" "http://www.w3.org/Graphics/SVG/1.1/DTD/svg11.dtd"><svg t="1783656341350" class="icon" viewBox="0 0 1024 1024" version="1.1" xmlns="http://www.w3.org/2000/svg" p-id="5102" xmlns:xlink="http://www.w3.org/1999/xlink" width="200" height="200"><path d="M473.472 59.904v536.192L314.56 437.184a38.592 38.592 0 0 0-54.592 54.528l218.176 218.112a37.888 37.888 0 0 0 33.856 9.984 37.888 37.888 0 0 0 33.92-9.984l218.112-218.112a38.528 38.528 0 0 0-54.528-54.528L550.592 596.096V59.904a38.528 38.528 0 0 0-77.12 0z" fill="#333333" p-id="5103"></path><path d="M960 1024H0V544a32 32 0 0 1 64 0V960h896V544a32 32 0 0 1 64 0V1024z" fill="#333333" p-id="5104"></path></svg>